<?xml version="1.0" encoding="UTF-8" standalone="no"?>
<!-- Uploaded to: SVG Repo, www.svgrepo.com, Generator: SVG Repo Mixer Tools -->

<svg
   width="800px"
   height="800px"
   viewBox="0 0 15 15"
   version="1.1"
   id="dam"
   sodipodi:docname="aforo.svg"
   inkscape:version="1.4.2 (f4327f4, 2025-05-13)"
   xmlns:inkscape="http://www.inkscape.org/namespaces/inkscape"
   xmlns:sodipodi="http://sodipodi.sourceforge.net/DTD/sodipodi-0.dtd"
   xmlns="http://www.w3.org/2000/svg"
   xmlns:svg="http://www.w3.org/2000/svg">
  <defs
     id="defs1" />
  <sodipodi:namedview
     id="namedview1"
     pagecolor="#ffffff"
     bordercolor="#000000"
     borderopacity="0.25"
     inkscape:showpageshadow="2"
     inkscape:pageopacity="0.0"
     inkscape:pagecheckerboard="0"
     inkscape:deskcolor="#d1d1d1"
     inkscape:zoom="1.134375"
     inkscape:cx="786.77686"
     inkscape:cy="652.78237"
     inkscape:window-width="3840"
     inkscape:window-height="2054"
     inkscape:window-x="3829"
     inkscape:window-y="-11"
     inkscape:window-maximized="1"
     inkscape:current-layer="dam" />
  <circle
     style="opacity:1;fill:#aaeeff;stroke:#000000;stroke-width:0.18277;stroke-linecap:round;stroke-linejoin:round;stroke-dasharray:none;stroke-opacity:1"
     id="path3"
     cx="7.5"
     cy="7.5"
     r="7.4086146" />
  <path
     d="m 12.419339,8.5483475 c 0,0.191498 -0.155293,0.346791 -0.346792,0.346791 v 0 c -0.179638,0.01519 -0.346375,0.09981 -0.4647,0.235818 -0.188239,0.200238 -0.428288,0.344295 -0.693583,0.41615 -0.424126,0.125955 -0.883209,0.02941 -1.2207072,-0.256625 l -0.270497,-0.242755 c -0.20641,-0.21071 -0.544532,-0.214109 -0.755243,-0.0077 -0.0026,0.0026 -0.0051,0.0051 -0.0077,0.0077 -0.0971,0.08323 -0.1872678,0.173396 -0.2913052,0.256626 -0.5047878,0.401169 -1.2250739,0.380708 -1.7062124,-0.048551 l -0.2358183,-0.228882 -0.069358,-0.04162 0.2080749,0.846171 0.3398557,1.3871665 c 0.057498,0.182689 -0.043973,0.377378 -0.2265936,0.434945 -0.036621,0.01151 -0.074907,0.01685 -0.1132621,0.01588 H 3.7911652 c -0.1914983,0 -0.3467916,-0.155294 -0.3467916,-0.346792 V 2.9996824 c 0,-0.1914983 0.1552933,-0.3467915 0.3467916,-0.3467915 h 0.7629414 c 0.1627146,-7.63e-4 0.3040668,0.1117362 0.3398557,0.2704974 l 0.6311606,2.5454499 v 0.097102 c 0.4556147,-0.217785 0.9960547,-0.152935 1.3871662,0.16646 0.1109733,0.090166 0.2150107,0.1942032 0.325984,0.2843691 0.1974631,0.1765862 0.49612,0.1765862 0.6935831,0 0.1109733,-0.090166 0.2150108,-0.1942033 0.3259841,-0.2843691 0.4907795,-0.4139304 1.2084995,-0.4139304 1.6992785,0 0.1040372,0.090166 0.2011392,0.1872674 0.3051772,0.2704974 0.197463,0.1765862 0.49612,0.1765862 0.693583,0 l 0.325984,-0.2843691 c 0.21938,-0.1853254 0.496536,-0.2883225 0.783749,-0.2913049 v 0 c 0.191498,0 0.346791,0.1552933 0.346791,0.3467916 0,0.1914983 -0.155293,0.3467915 -0.346791,0.3467915 v 0 C 11.885974,6.1359957 11.719236,6.2206137 11.600911,6.356625 11.412673,6.5568624 11.172623,6.7009196 10.907328,6.7727748 10.483202,6.8987295 10.024119,6.8021828 9.6866218,6.5161491 L 9.4577388,6.2803304 c -0.20641,-0.2107105 -0.544532,-0.2141091 -0.755242,-0.0077 -0.0026,0.00257 -0.0051,0.00513 -0.0077,0.0077 -0.0971,0.08323 -0.187268,0.1733958 -0.2913051,0.2566258 C 7.8987029,6.9381246 7.1784169,6.9176639 6.6972783,6.4884054 L 6.4267809,6.2525871 c -0.1974631,-0.1765863 -0.49612,-0.1765863 -0.6935831,0 l -0.041615,0.034679 0.4785724,1.9142894 c 0.2723007,0.02011 0.5316314,0.12436 0.7421339,0.298241 0.1109733,0.09017 0.2150107,0.194203 0.325984,0.284369 0.1974631,0.176586 0.49612,0.176586 0.6935831,0 0.1109733,-0.09017 0.2150108,-0.194203 0.3259841,-0.284369 0.4907795,-0.413931 1.2084995,-0.413931 1.6992785,0 0.1040372,0.09017 0.2011392,0.187267 0.3051772,0.270497 0.197463,0.176586 0.49612,0.176586 0.693583,0 l 0.325984,-0.284369 c 0.220351,-0.182828 0.497438,-0.283329 0.783749,-0.284369 v 0 c 0.191498,-0.0038 0.349843,0.148288 0.353658,0.339786 6.9e-5,0.0024 6.9e-5,0.0046 6.9e-5,0.007 z"
     id="path1"
     style="stroke-width:0.693583" />
</svg>
