<?xml version="1.0" encoding="UTF-8" standalone="no"?>
<!-- Uploaded to: SVG Repo, www.svgrepo.com, Generator: SVG Repo Mixer Tools -->

<svg
   fill="#000000"
   version="1.1"
   id="Layer_1"
   width="800px"
   height="800px"
   viewBox="0 0 260 214"
   enable-background="new 0 0 260 214"
   xml:space="preserve"
   sodipodi:docname="central_hidorelectrica.svg"
   inkscape:version="1.4.2 (f4327f4, 2025-05-13)"
   xmlns:inkscape="http://www.inkscape.org/namespaces/inkscape"
   xmlns:sodipodi="http://sodipodi.sourceforge.net/DTD/sodipodi-0.dtd"
   xmlns="http://www.w3.org/2000/svg"
   xmlns:svg="http://www.w3.org/2000/svg"><defs
   id="defs1" /><sodipodi:namedview
   id="namedview1"
   pagecolor="#ffffff"
   bordercolor="#000000"
   borderopacity="0.25"
   inkscape:showpageshadow="2"
   inkscape:pageopacity="0.0"
   inkscape:pagecheckerboard="0"
   inkscape:deskcolor="#d1d1d1"
   inkscape:zoom="1.134375"
   inkscape:cx="-89.917355"
   inkscape:cy="651.90083"
   inkscape:window-width="3840"
   inkscape:window-height="2054"
   inkscape:window-x="3829"
   inkscape:window-y="-11"
   inkscape:window-maximized="1"
   inkscape:current-layer="Layer_1" />
<ellipse
   style="fill:#fff6d5;stroke:#000000;stroke-width:3.16804;stroke-linecap:round;stroke-linejoin:round"
   id="path2"
   cx="129.99834"
   cy="106.9999"
   rx="128.41765"
   ry="128.41588" /><path
   d="m 77.445549,71.613138 c -1.434112,-0.677723 -3.049757,-1.058943 -4.725914,-1.058943 -1.694309,0 -3.309954,0.38122 -4.750117,1.058943 -1.379652,0.617213 -2.958991,0.992382 -4.604892,0.992382 -1.6459,0 -3.201034,-0.375169 -4.60489,-0.992382 -1.440164,-0.677723 -3.055809,-1.058943 -4.756169,-1.058943 h -0.09077 v 6.052922 h 0.09077 c 1.670104,0 3.28575,0.375168 4.756169,1.052892 1.3736,0.617211 2.95899,0.998433 4.60489,0.998433 1.645901,0 3.201036,-0.350965 4.604892,-0.998433 1.440163,-0.677724 3.055808,-1.052892 4.750117,-1.052892 1.676157,0 3.291802,0.375168 4.725914,1.052892 0.950024,0.411475 1.960558,0.720082 3.019501,0.877409 v -6.05292 c -1.058943,-0.151279 -2.069477,-0.459885 -3.019501,-0.87136 z m 0,12.102212 c -1.434112,-0.677724 -3.049757,-1.058943 -4.725914,-1.058943 -1.694309,0 -3.309954,0.381219 -4.750117,1.058943 -1.379652,0.617211 -2.958991,0.99238 -4.604892,0.99238 -1.6459,0 -3.201034,-0.375169 -4.60489,-0.99238 -1.440164,-0.677724 -3.055809,-1.058943 -4.756169,-1.058943 h -0.09077 v 6.05292 h 0.09077 c 1.670104,0 3.28575,0.375168 4.756169,1.052892 1.3736,0.617213 2.95899,0.998433 4.60489,0.998433 1.645901,0 3.201036,-0.350964 4.604892,-0.998433 1.440163,-0.677724 3.055808,-1.052892 4.750117,-1.052892 1.676157,0 3.291802,0.375168 4.725914,1.052892 0.950024,0.411475 1.960558,0.720082 3.019501,0.87741 V 84.586708 C 79.406107,84.435431 78.395573,84.126825 77.445549,83.71535 Z M 53.9128,108.19206 h 26.624863 v 58.69573 H 53.9128 Z m 154.9083,49.57671 c 0,2.89788 -1.00328,5.73646 -2.82526,7.99411 -0.59785,0.74066 -1.47345,1.12491 -2.3563,1.12491 -0.66744,0 -1.33912,-0.21905 -1.89884,-0.67107 -1.29977,-1.04925 -1.5031,-2.95415 -0.45383,-4.25453 0.96999,-1.20115 1.48251,-2.65159 1.48251,-4.19342 0,-3.66999 -2.98621,-6.65621 -6.65621,-6.65621 -0.76183,0 -1.5037,0.12647 -2.20623,0.37638 -0.95911,0.34067 -2.02592,0.17669 -2.83797,-0.43871 -0.81206,-0.61419 -1.26045,-1.59568 -1.19388,-2.61105 0.0139,-0.2136 0.0175,-0.43084 0.0175,-0.64868 0,-6.21932 -5.05933,-11.27926 -11.27925,-11.27926 -1.80868,0 -3.54535,0.42418 -5.11561,1.2308 l 1.25257,4.54983 c 0.44356,1.61141 -0.50284,3.27667 -2.11365,3.71961 -0.26866,0.0744 -0.53915,0.10948 -0.80479,0.10948 -1.32762,0 -2.5457,-0.88104 -2.91482,-2.22319 l -7.35996,-26.73862 C 155.80009,96.683427 146.13344,85.120369 129.24119,79.294971 l -1.71792,-6.871634 c 21.0391,6.014798 33.15703,19.260063 39.86347,43.113513 l 4.48267,16.28595 c 2.11183,-0.89617 4.39008,-1.36331 6.74516,-1.36331 8.63009,0 15.8061,6.34034 17.11616,14.60736 0.12767,-0.005 0.25536,-0.006 0.38364,-0.006 7.00597,6e-4 12.70672,5.70135 12.70672,12.70792 z m -63.86458,9.11902 -29.91304,-119.775578 c -1.07527,-4.313228 -5.25115,-7.297633 -9.69629,-7.297633 H 86.588769 V 166.88779 Z m -50.70706,-26.06211 15.69052,-22.38909 h 12.54395 l -10.17191,14.52265 h 13.56657 l -29.50519,24.14392 10.72257,-16.27748 z m 94.53764,22.25475 c 0.53189,1.91155 -0.89375,3.80736 -2.87791,3.80736 v 0 c -1.35182,0 -2.58866,-0.86651 -2.94809,-2.16932 -0.95246,-3.45519 -4.12263,-6.04202 -7.87674,-6.04202 -3.624,0 -6.70461,2.41439 -7.77021,5.68744 -0.48651,1.49402 -1.85286,2.5239 -3.42433,2.5239 v 0 h -0.33704 c -1.63985,0 -3.07094,-1.11098 -3.47817,-2.6994 l -13.58292,-53.0573 c -2.24314,-8.58471 -7.46465,-15.819402 -14.45609,-20.656656 l -2.05254,-8.21014 c 10.90107,5.323157 19.18624,15.181014 22.3667,27.350386 l 12.21416,47.67242 c 2.60319,-2.86216 6.35547,-4.66237 10.51984,-4.66237 6.5231,6e-4 12.03444,4.45725 13.70334,10.4557 z M 77.445549,95.829056 c -1.434112,-0.677722 -3.049757,-1.058943 -4.725914,-1.058943 -1.694309,0 -3.309954,0.381221 -4.750117,1.058943 -1.379652,0.617214 -2.958991,0.992382 -4.604892,0.992382 -1.6459,0 -3.201034,-0.375168 -4.60489,-0.992382 -1.440164,-0.677722 -3.055809,-1.058943 -4.756169,-1.058943 h -0.09077 v 6.052317 h 0.09077 c 1.670104,0 3.28575,0.37517 4.756169,1.05288 1.3736,0.61722 2.95899,0.99844 4.60489,0.99844 1.645901,0 3.201036,-0.35097 4.604892,-0.99844 1.440163,-0.67771 3.055808,-1.05288 4.750117,-1.05288 1.676157,0 3.291802,0.37517 4.725914,1.05288 0.950024,0.41149 1.960558,0.72009 3.019501,0.87741 v -6.052303 c -1.058943,-0.151278 -2.069477,-0.459885 -3.019501,-0.871361 z"
   id="path1"
   style="stroke-width:0.605111" />
</svg>
