<?xml version="1.0" encoding="UTF-8" standalone="no"?>
<!-- Uploaded to: SVG Repo, www.svgrepo.com, Generator: SVG Repo Mixer Tools -->

<svg
   width="800px"
   height="800px"
   viewBox="0 -32.5 1089 1089"
   fill="#000000"
   class="icon"
   version="1.1"
   id="svg1"
   sodipodi:docname="embalse.svg"
   inkscape:version="1.4.2 (f4327f4, 2025-05-13)"
   xmlns:inkscape="http://www.inkscape.org/namespaces/inkscape"
   xmlns:sodipodi="http://sodipodi.sourceforge.net/DTD/sodipodi-0.dtd"
   xmlns="http://www.w3.org/2000/svg"
   xmlns:svg="http://www.w3.org/2000/svg">
  <defs
     id="defs1" />
  <sodipodi:namedview
     id="namedview1"
     pagecolor="#ffffff"
     bordercolor="#000000"
     borderopacity="0.25"
     inkscape:showpageshadow="2"
     inkscape:pageopacity="0.0"
     inkscape:pagecheckerboard="0"
     inkscape:deskcolor="#d1d1d1"
     inkscape:zoom="0.80212426"
     inkscape:cx="1388.1889"
     inkscape:cy="44.257482"
     inkscape:window-width="3840"
     inkscape:window-height="2054"
     inkscape:window-x="3829"
     inkscape:window-y="-11"
     inkscape:window-maximized="1"
     inkscape:current-layer="svg1" />
  <ellipse
     style="opacity:1;fill:#d5d5ff;stroke:#000000;stroke-width:13.2692;stroke-linecap:round;stroke-linejoin:round"
     id="path2"
     cx="544.5"
     cy="511.99265"
     rx="537.87238"
     ry="537.86499" />
  <path
     d="m 479.30898,512.22794 -21.5024,15.19605 a 22.810172,22.810172 0 0 0 26.36513,37.2303 l 21.5024,-15.19604 a 11.245071,11.245071 0 0 1 12.46075,0 l 16.48771,11.62497 a 56.453297,56.453297 0 0 0 65.19102,0 l 16.48771,-11.62497 a 10.485269,10.485269 0 0 1 2.58332,-1.29167 22.794063,22.794063 0 0 0 -14.66418,-43.15676 55.465554,55.465554 0 0 0 -14.28428,7.59802 l -16.4877,11.01713 a 11.245071,11.245071 0 0 1 -12.46076,0 L 544.5,512 a 56.453297,56.453297 0 0 0 -65.19102,0.22794 z M 833.45276,399.85321 c 0,-27.50484 -30.3921,-45.58813 -98.24243,-57.89692 -24.31367,-4.48284 -52.35037,-7.97793 -82.74245,-10.56125 9.5735,15.65192 19.22299,32.06365 28.26464,48.62734 a 439.16562,439.16562 0 0 1 96.34294,19.75485 c -18.5392,7.14214 -55.23765,15.19604 -108.8037,21.1225 A 1446.5872,1446.5872 0 0 0 558.40438,244.92956 l -18.38722,-25.22543 -18.38721,25.22543 A 1445.7515,1445.7515 0 0 0 411.68659,421.20365 c -54.85771,-5.62254 -92.31596,-14.13232 -111.08307,-21.35044 a 445.24404,445.24404 0 0 1 98.77427,-20.05878 c 9.04165,-16.56368 18.61516,-32.97541 28.26464,-48.55135 -31.30384,2.50735 -60.2523,6.1544 -85.24979,10.71321 -68.00229,12.53673 -98.3184,30.39208 -98.3184,57.89692 v 302.47722 c 1.44363,26.36513 31.75973,43.7646 98.16644,55.9974 a 1286.193,1286.193 0 0 0 392.74171,0 c 66.33077,-12.2328 96.72277,-29.55629 98.16647,-55.9974 v -302.1733 c 0,0 0.3039,-0.22794 0.3039,-0.30392 z M 540.01716,297.81179 a 1413.2319,1413.2319 0 0 1 78.79148,127.03891 c -24.31366,1.44362 -50.90674,2.27941 -80.00716,2.27941 -29.10042,0 -54.02193,-0.75982 -77.65177,-2.12745 a 1413.9157,1413.9157 0 0 1 78.86745,-127.26685 z m 118.52913,232.2715 a 118.52913,118.52913 0 0 1 -237.05825,0 c 0,-14.58821 6.83821,-35.93864 17.77936,-60.78418 31.45581,2.20343 64.96309,3.41912 99.53408,3.41912 34.571,0 69.82582,-1.29166 101.88946,-3.57107 10.94115,24.76955 17.85535,46.19597 17.85535,60.86015 z m 118.68107,170.65156 c -30.9239,11.92889 -112.45069,27.35287 -238.42588,27.35287 -125.97519,0 -207.50196,-15.19604 -238.4259,-27.35287 19.22299,-7.59803 58.20084,-16.25977 115.33796,-21.80632 a 195.57306,195.57306 0 0 1 -37.15432,-41.33324 c -12.61272,1.67157 -24.76955,3.49509 -35.93864,5.54656 a 342.36683,342.36683 0 0 0 -52.73027,13.37251 V 444.37761 a 342.36683,342.36683 0 0 0 52.73027,13.37252 c 15.19604,2.81127 31.68374,5.16666 49.31115,7.21812 a 189.03877,189.03877 0 0 0 -15.87986,65.03906 164.11726,164.11726 0 0 0 328.23451,0 189.49465,189.49465 0 0 0 -15.95584,-65.34298 c 16.71564,-1.97548 32.51953,-4.25489 46.95577,-6.99018 a 342.36683,342.36683 0 0 0 52.65425,-13.37252 v 211.83283 a 342.36683,342.36683 0 0 0 -52.65425,-13.37251 690.88806,690.88806 0 0 0 -33.73522,-5.24264 195.57306,195.57306 0 0 1 -37.38226,41.56118 c 55.76947,5.62253 94.29143,14.28428 113.05853,21.57838 z"
     id="path1"
     style="stroke-width:0.540988" />
</svg>
